<svg width="146" height="275" viewBox="0 0 146 275" fill="none" xmlns="http://www.w3.org/2000/svg">
<path fill-rule="evenodd" clip-rule="evenodd" d="M85.5641 42.0624L106.213 43.6556C106.628 43.3796 106.984 43.0244 107.261 42.6103C107.538 42.1963 107.73 41.7315 107.827 41.2428C107.924 40.7541 107.923 40.2511 107.825 39.7628C107.726 39.2744 107.533 38.8102 107.254 38.397L85.3871 34.2319L85.5641 42.0624ZM84.3249 41.4897L84.8456 35.5699L85.3194 34.2423L84.0125 33.9924C83.1264 35.1086 82.6564 36.4984 82.683 37.9234C82.7096 39.3484 83.2312 40.7197 84.1583 41.8021C84.2528 41.7209 84.3186 41.6113 84.3458 41.4897H84.3249Z" fill="#333333"/>
<path fill-rule="evenodd" clip-rule="evenodd" d="M50.0612 22.5902C49.4252 20.3786 49.2793 18.0548 49.6337 15.781C49.988 13.5072 50.8341 11.3381 52.1129 9.42486C53.3917 7.51164 55.0725 5.9004 57.038 4.7035C59.0035 3.50659 61.2064 2.75283 63.4932 2.49478C65.7799 2.23673 68.0954 2.4806 70.2782 3.20939C72.461 3.93817 74.4586 5.13433 76.1316 6.71444C77.8046 8.29456 79.1129 10.2206 79.965 12.3583C80.8172 14.4959 81.1928 16.7937 81.0657 19.0915C80.0213 27.4452 78.1785 35.6796 75.5625 43.6816C73.282 45.4727 69.3564 44.9694 63.7854 42.1717L59.3287 46.1807L47.156 38.4752L50.0612 22.5902Z" fill="#F3D2B2"/>
<path fill-rule="evenodd" clip-rule="evenodd" d="M76.1404 6.71567C77.8125 8.2958 79.1196 10.2219 79.9703 12.3594C80.821 14.497 81.1948 16.7945 81.0657 19.0915C80.9512 20.0963 80.8158 21.1116 80.6648 22.1268L65.7014 17.5816C65.5518 16.1568 65.7147 14.7165 66.1786 13.3611C66.6425 12.0057 67.3963 10.7677 68.3875 9.73332C69.3787 8.69898 70.5835 7.89316 71.918 7.372C73.2525 6.85084 74.6845 6.62687 76.1144 6.71567" fill="#EEA69E"/>
<path fill-rule="evenodd" clip-rule="evenodd" d="M63.7854 42.1717L59.3287 46.1807L51.519 41.2398C51.908 40.7652 52.3539 40.3403 52.8466 39.9746C56.4391 36.1843 60.0836 36.9167 63.7802 42.1717" fill="#EEA69E"/>
<path fill-rule="evenodd" clip-rule="evenodd" d="M15.7974 237.862C19.31 241.017 24.0739 243.122 30.0892 244.178C27.0659 250.425 25.5543 253.549 25.5543 253.549C20.6446 254.627 14.4281 252.409 10.9762 248.77L15.7974 237.862Z" fill="#F3D2B2"/>
<path fill-rule="evenodd" clip-rule="evenodd" d="M72.7406 138.387C61.3441 140.746 49.6948 141.653 38.0707 141.084C36.3005 158.739 35.91 179.05 34.3324 197.554L13.9439 237.971C16.0563 240.426 18.6384 242.433 21.5381 243.874C24.4378 245.315 27.5966 246.162 30.8285 246.364L49.275 218.218C56.63 210.724 61.0659 202.246 62.5827 192.785C69.8718 160.504 72.7406 138.387 72.7406 138.387Z" fill="#1C1C1C"/>
<path fill-rule="evenodd" clip-rule="evenodd" d="M103.214 245.26C101.026 246.926 98.4815 248.062 95.7806 248.58C93.0797 249.097 90.2956 248.982 87.6467 248.244L89.8698 258.277C92.4766 259.458 95.3614 259.89 98.1997 259.522C101.038 259.154 103.718 258.001 105.937 256.194C105.937 256.194 104.896 251.888 103.214 245.26Z" fill="#F3D2B2"/>
<path fill-rule="evenodd" clip-rule="evenodd" d="M133.901 274.563H85.7932C85.7932 274.563 86.5221 268.523 87.9851 256.449C88.2498 256.157 88.5772 255.929 88.9428 255.783C89.3084 255.636 89.7025 255.574 90.0956 255.601C90.4886 255.629 90.8702 255.745 91.2117 255.942C91.5532 256.138 91.8456 256.41 92.067 256.736C94.1495 257.808 96.6816 258.155 99.6632 257.777C101.853 255.864 104.488 254.532 107.327 253.903L122.947 262.957C124.492 262.751 126.065 262.916 127.534 263.439C129.003 263.961 130.327 264.826 131.395 265.962C132.464 267.098 133.247 268.472 133.679 269.97C134.111 271.468 134.18 273.048 133.88 274.578" fill="#333333"/>
<path fill-rule="evenodd" clip-rule="evenodd" d="M86.0483 272.459L86.3398 270.028H133.719C133.944 270.821 134.068 271.64 134.088 272.464H133.984H86.1993C86.1508 272.47 86.1019 272.47 86.0535 272.464" fill="white"/>
<path fill-rule="evenodd" clip-rule="evenodd" d="M81.3989 135.8C68.4869 140.522 53.9452 143.609 38.0863 141.084C44.459 158.266 52.8675 168.642 61.9684 183.387L67.9142 193.024C77.9002 209.211 80.2014 231.302 85.3871 249.728C91.5672 250.811 100.392 249.254 105.692 245.844C102.319 228.194 99.8923 211.382 96.9767 193.904C96.3892 190.181 95.4585 186.521 94.1964 182.97C94.1964 182.97 89.5106 161.921 81.3937 135.8" fill="#333333"/>
<path fill-rule="evenodd" clip-rule="evenodd" d="M120.968 34.9191L95.977 60.9983L76.5881 54.9276C73.8805 57.2677 71.9099 60.3432 70.9155 63.781C69.9211 67.2189 69.9456 70.8714 70.986 74.2957L94.1652 76.7479C100.17 78.4834 104.752 76.6681 107.91 71.3019C107.91 71.3019 115.454 59.8164 129.574 41.3908C131.876 40.5109 134.885 38.7459 139.56 31.5453L144.73 23.3816C144.899 23.212 145.001 22.9876 145.018 22.7493C145.035 22.5109 144.966 22.2742 144.824 22.0822C144.682 21.8902 144.475 21.7555 144.242 21.7026C144.009 21.6496 143.765 21.6819 143.554 21.7936L144.71 20.3098C144.86 20.1221 144.935 19.8845 144.919 19.6443C144.902 19.404 144.796 19.1788 144.621 19.0133C144.446 18.8475 144.214 18.755 143.973 18.755C143.732 18.755 143.5 18.8475 143.325 19.0133L141.554 20.0546L143.424 17.6493C143.488 17.4394 143.482 17.2143 143.407 17.0081C143.332 16.8018 143.192 16.6256 143.007 16.5062C142.823 16.3868 142.605 16.3306 142.386 16.3461C142.167 16.3617 141.959 16.4481 141.794 16.5923L139.534 18.2584L140.638 16.3633C140.713 16.1771 140.724 15.9714 140.669 15.7784C140.614 15.5855 140.497 15.4162 140.335 15.297C140.174 15.1779 139.978 15.1158 139.777 15.1203C139.576 15.1248 139.383 15.1957 139.227 15.322C130.663 22.5642 130.116 21.6739 127.252 24.173C128.92 22.75 130.103 20.8429 130.637 18.7166C130.596 18.5939 130.528 18.4822 130.438 18.3901C130.347 18.2981 130.237 18.2282 130.115 18.1858C129.993 18.1435 129.863 18.1299 129.735 18.1461C129.607 18.1623 129.484 18.2079 129.377 18.2792C128.42 19.5842 127.322 20.7786 126.102 21.8405C121.881 25.9466 120.17 30.3062 120.968 34.9191Z" fill="#F3D2B2"/>
<path fill-rule="evenodd" clip-rule="evenodd" d="M127.627 23.845L127.268 24.1469C127.963 25.309 128.323 26.6405 128.309 27.9945C128.317 28.1402 128.317 28.2862 128.309 28.4319C128.227 29.8346 127.66 31.1652 126.706 32.1961C126.658 32.2428 126.62 32.2989 126.595 32.361C126.57 32.4231 126.558 32.4897 126.561 32.5566C126.563 32.6234 126.58 32.6891 126.609 32.7492C126.638 32.8094 126.68 32.8627 126.731 32.9058C126.782 32.949 126.842 32.9809 126.906 32.9996C126.97 33.0182 127.038 33.0232 127.104 33.0142C127.17 33.0053 127.234 32.9825 127.291 32.9474C127.348 32.9123 127.397 32.8657 127.435 32.8105C128.53 31.6135 129.176 30.0732 129.262 28.4527C129.255 26.7976 128.706 25.1905 127.7 23.8762L127.627 23.845Z" fill="#EEA69E"/>
<path fill-rule="evenodd" clip-rule="evenodd" d="M99.0332 57.7859L95.977 60.9775L76.5881 54.9068C73.8765 57.2486 71.9036 60.3276 70.909 63.7696C69.9145 67.2117 69.9412 70.8685 70.986 74.2957L94.1652 76.7479C97.2266 77.633 99.9183 77.5966 102.24 76.6386L99.0332 57.7859Z" fill="#EEA69E"/>
<path fill-rule="evenodd" clip-rule="evenodd" d="M128.882 42.3071L129.58 41.3908C128.054 40.9615 126.616 40.2672 125.331 39.3394C125.216 39.2517 125.071 39.2125 124.927 39.23C124.783 39.2475 124.652 39.3203 124.561 39.4331C124.473 39.5477 124.434 39.6919 124.452 39.8349C124.469 39.9779 124.542 40.1084 124.654 40.1985C125.934 41.1348 127.364 41.8478 128.882 42.3071Z" fill="#EEA69E"/>
<path fill-rule="evenodd" clip-rule="evenodd" d="M139.842 18.0293L139.534 18.2584L139.711 17.9565L133.766 23.3608C133.664 23.4643 133.608 23.604 133.609 23.749C133.611 23.894 133.67 24.0324 133.773 24.1339C133.877 24.2354 134.017 24.2916 134.162 24.2902C134.307 24.2887 134.445 24.2297 134.547 24.1261L139.842 18.0293ZM141.69 19.8776C141.69 19.8776 141.716 19.8672 141.716 19.8776H141.69ZM141.768 19.9401L141.534 20.0755L141.69 19.8776L135.916 25.3288C135.817 25.4345 135.764 25.575 135.769 25.7195C135.774 25.864 135.836 26.0006 135.942 26.0994C136.048 26.1981 136.188 26.2508 136.333 26.2459C136.477 26.2411 136.614 26.179 136.712 26.0733L141.768 19.9401ZM143.793 21.7051C143.703 21.722 143.615 21.7518 143.533 21.7936L143.7 21.5802L138.17 27.4791C138.078 27.5909 138.035 27.7347 138.049 27.8787C138.063 28.0227 138.134 28.1552 138.246 28.247C138.358 28.3389 138.501 28.3825 138.645 28.3683C138.789 28.3542 138.922 28.2834 139.014 28.1715L143.793 21.7051Z" fill="#EEA69E"/>
<path fill-rule="evenodd" clip-rule="evenodd" d="M58.2197 74.6185L59.3287 46.1807L86.4492 54.9536C87.8141 56.1382 88.8969 57.6128 89.6185 59.2697C90.3401 60.9266 90.6822 62.7239 90.6198 64.53C90.5574 66.3362 90.0921 68.1055 89.2579 69.7087C88.4237 71.3118 87.2417 72.7083 85.7984 73.7958L58.2041 74.6185" fill="#3D5790"/>
<path fill-rule="evenodd" clip-rule="evenodd" d="M35.7798 101.348C35.3529 93.3722 34.8426 85.9946 34.0825 80.5747C29.1155 61.033 30.7382 48.2407 38.9506 42.1978C47.1802 34.697 55.2624 35.7695 63.1971 45.4154L63.4314 45.7486L77.9626 63.5026C78.754 64.5439 78.6967 65.3822 77.7804 65.9653L79.2018 67.9646C81.0553 87.8325 83.6012 117.947 85.0903 135.472C85.059 137.006 84.5957 138.082 83.7002 138.7C72.9158 142.063 59.5855 143.785 43.7093 143.865C42.0015 143.865 40.266 143.854 38.5028 143.833H38.4195C36.625 143.979 35.6826 143.488 35.5924 142.36L35.7798 101.348Z" fill="#4E6FB5"/>
<path fill-rule="evenodd" clip-rule="evenodd" d="M81.0709 88.6916C81.9195 98.3027 82.789 108.414 83.57 117.577C63.2995 102.041 48.8654 85.2952 40.2678 67.3398C40.2233 67.1975 40.1937 67.0509 40.1793 66.9025C40.1821 66.7381 40.2257 66.5769 40.3062 66.4335C40.3866 66.2901 40.5013 66.1688 40.6401 66.0806C40.7789 65.9924 40.9373 65.94 41.1013 65.928C41.2653 65.9161 41.4297 65.945 41.5798 66.0122L60.8438 81.012C60.9985 80.2683 61.2342 79.5438 61.5466 78.8513L62.0152 79.2262L63.4418 76.3054L81.0501 88.6916" fill="#3D5790"/>
<path fill-rule="evenodd" clip-rule="evenodd" d="M86.5169 50.1168C86.4405 57.9786 86.201 65.8716 85.7984 73.7958L77.8273 65.2C75.8364 65.5245 73.9002 66.1238 72.0741 66.9806L72.324 67.1992C67.7525 69.6092 64.0954 73.4492 61.9111 78.1328C75.198 87.5722 87.5842 97.8289 87.5842 97.8289C88.9833 98.5466 90.5456 98.8867 92.1165 98.8155C93.6874 98.7442 95.2125 98.2641 96.5409 97.4227C97.8694 96.5812 98.9551 95.4076 99.6909 94.0178C100.427 92.628 100.787 91.0702 100.736 89.4985C99.1564 64.091 98.3685 51.3889 98.372 51.3924C98.969 50.7965 99.428 50.077 99.7168 49.2845C100.006 48.4919 100.117 47.6457 100.043 46.8055L99.2467 40.1568C98.9655 36.2416 97.9815 34.5061 96.2946 34.9504C95.8623 34.3617 95.2208 33.9613 94.5021 33.8315C93.7834 33.7017 93.0423 33.8525 92.4314 34.2527C92.0602 33.7655 91.5184 33.4368 90.9148 33.3325C90.3113 33.2282 89.6906 33.3561 89.1774 33.6904C88.6492 33.2246 87.9585 32.9863 87.2554 33.0272C86.5524 33.0682 85.894 33.3851 85.4235 33.9091L84.83 35.5699C84.4829 39.8323 84.3093 41.9652 84.3093 41.9687C83.6509 41.4061 83.1958 40.6426 83.0142 39.7958C82.8326 38.949 82.9346 38.066 83.3045 37.2829C82.8323 37.608 82.4332 38.0283 82.133 38.5168C82.0096 38.7742 81.9382 39.0534 81.923 39.3384C81.9078 39.6234 81.9491 39.9086 82.0445 40.1777C82.3211 41.7725 82.4777 43.3858 82.5131 45.0041C83.2663 47.4337 84.6009 49.1432 86.5169 50.1324" fill="#F3D2B2"/>
<path fill-rule="evenodd" clip-rule="evenodd" d="M83.5961 41.1669C83.3729 40.8469 83.1975 40.4961 83.0754 40.1256C82.7159 40.1315 82.3655 40.2399 82.0653 40.438C82.1903 41.2658 82.2788 41.9999 82.3413 42.5935L84.8508 42.7028C84.9818 42.3781 85.0196 42.0233 84.9598 41.6784C84.9 41.3334 84.7451 41.012 84.5124 40.7504C84.4821 40.7132 84.4491 40.6784 84.4135 40.6462L84.2885 41.6303L84.1323 40.9378C83.9792 41.054 83.8008 41.1325 83.6117 41.1669" fill="#EEA69E"/>
<path fill-rule="evenodd" clip-rule="evenodd" d="M85.7984 73.7958L84.5332 72.4317C84.1948 76.0763 84.5332 81.0172 84.403 84.2036C84.4113 84.3639 84.4795 84.5153 84.594 84.6277C84.7086 84.7401 84.8612 84.8054 85.0217 84.8107C85.1821 84.8159 85.3387 84.7607 85.4604 84.656C85.582 84.5513 85.6599 84.4047 85.6786 84.2452C85.7776 81.2515 85.5433 77.1436 85.7984 73.7958Z" fill="#EEA69E"/>
<path fill-rule="evenodd" clip-rule="evenodd" d="M86.5169 50.1168V51.533L89.4533 52.9647C89.5295 53.0076 89.6136 53.0343 89.7006 53.0434C89.7875 53.0525 89.8753 53.0437 89.9587 53.0175C90.0421 52.9914 90.1193 52.9484 90.1854 52.8913C90.2516 52.8342 90.3054 52.7642 90.3435 52.6855C90.3816 52.6069 90.4031 52.5213 90.4069 52.434C90.4106 52.3466 90.3965 52.2595 90.3653 52.1778C90.3341 52.0962 90.2865 52.0218 90.2255 51.9593C90.1644 51.8967 90.0912 51.8473 90.0104 51.8141L86.5169 50.1168Z" fill="#EEA69E"/>
<path fill-rule="evenodd" clip-rule="evenodd" d="M77.5721 65.2416C75.6702 65.5767 73.8214 66.1632 72.0741 66.9858L72.324 67.1992C67.7525 69.6092 64.0954 73.4492 61.9111 78.1328L65.717 80.8766C67.1957 73.5876 72.0481 68.5894 77.9314 65.8143C77.8116 65.6165 77.6815 65.4238 77.5513 65.2312" fill="#EEA69E"/>
<path fill-rule="evenodd" clip-rule="evenodd" d="M62.4109 79.1741L63.2231 79.7468C62.9325 79.9599 62.6222 80.1447 62.2964 80.2987C62.1272 80.3802 61.9534 80.4515 61.7757 80.5122L62.4109 79.1741ZM77.7544 65.9549C77.6934 65.9979 77.6243 66.0281 77.5513 66.0434C74.1155 66.681 70.9124 68.225 68.2734 70.5158C66.9457 71.6976 64.5195 75.1443 63.5199 76.7375V76.7739V76.8104V76.8468L63.4938 76.8833V76.9197V76.9562V76.9874L63.4678 77.0238V77.0551V77.0915V77.1228L63.3689 77.2894C63.2439 77.5028 63.1294 77.7007 63.0357 77.8777V77.9037V77.9298V77.961C62.942 78.1537 62.8639 78.3203 62.8066 78.4817C63.4418 78.919 64.1186 79.4032 64.8423 79.9186L64.759 80.0124C64.2418 80.483 63.6575 80.8743 63.0253 81.1734C62.4165 81.4527 61.7655 81.6286 61.0989 81.694H60.7344L41.9911 66.7775C41.8779 66.6878 41.805 66.5567 41.7884 66.4132C41.7718 66.2696 41.8129 66.1254 41.9026 66.0122C41.9924 65.8989 42.1234 65.826 42.267 65.8094C42.4105 65.7928 42.5547 65.8339 42.668 65.9236L58.0219 78.1537C59.1778 74.6101 60.9201 71.2856 63.1763 68.3186C65.1753 66.0525 67.7522 64.3717 70.6319 63.4558C70.7003 63.4332 70.7724 63.4243 70.8443 63.4297C70.9161 63.435 70.9861 63.4544 71.0504 63.4868C71.1147 63.5192 71.172 63.5639 71.219 63.6185C71.266 63.673 71.3018 63.7362 71.3244 63.8046C71.3469 63.873 71.3558 63.9451 71.3505 64.0169C71.3452 64.0887 71.3258 64.1588 71.2934 64.2231C71.261 64.2874 71.2162 64.3447 71.1617 64.3917C71.1072 64.4387 71.0439 64.4745 70.9756 64.4971C68.2797 65.3521 65.8665 66.9231 63.9937 69.0423C61.6552 72.0024 59.8558 75.3509 58.6779 78.9346L60.547 80.4237C61.9267 76.8676 65.1183 71.9319 67.5914 69.7348C70.3106 67.363 73.6051 65.7471 77.1452 65.049C77.6443 64.8518 78.0562 64.4824 78.3063 64.0077C78.4126 64.1679 78.483 64.3492 78.5127 64.5391C78.5423 64.7291 78.5305 64.9232 78.4781 65.1082C78.4257 65.2932 78.3338 65.4646 78.2089 65.6108C78.084 65.7569 77.9289 65.8743 77.7544 65.9549Z" fill="#32487A"/>
<path fill-rule="evenodd" clip-rule="evenodd" d="M77.6502 16.962C76.8849 16.962 75.7811 17.9304 74.4639 18.2064C73.1466 18.4823 71.6159 18.0814 70.6423 18.425C69.6687 18.7687 69.2678 19.8516 68.7211 21.3667C68.1745 22.8818 67.4924 24.8342 66.9145 25.5319C66.3366 26.2295 65.8732 25.7245 65.6025 24.5635C65.3317 23.4024 65.264 21.6114 64.8163 20.1692C64.3685 18.727 63.5407 17.6389 62.6504 17.3577C61.7601 17.0766 60.8125 17.6076 60.0003 18.6489C59.1439 19.7993 58.5761 21.1384 58.3447 22.5538C58.1624 23.8606 58.4644 24.9175 58.0479 25.8599C57.6314 26.8022 56.4859 27.6197 55.0021 28.51C53.5182 29.4003 51.6752 30.3583 50.3892 30.5926C49.1032 30.8268 48.3691 30.3218 48.1712 28.8796C47.9734 27.4374 48.3118 25.0581 48.0775 22.736C47.8432 20.4139 47.0362 18.1387 47.1664 15.827C47.2965 13.5153 48.3691 11.1412 49.5041 9.18355C50.6391 7.22592 51.8366 5.60149 52.9768 4.77887C54.117 3.95625 55.1999 3.9146 55.8976 3.45122C56.5953 2.98784 56.8973 2.10274 57.5116 1.36863C58.126 0.63452 59.0736 0.129496 61.7653 0.160735C65.4953 0.283395 69.1882 0.942707 72.7301 2.11837C76.0341 3.31362 79.1179 5.0464 81.8571 7.24674C84.2833 9.11066 86.168 10.8652 86.5793 13.1196C86.9907 15.374 85.9337 18.1231 84.4655 19.1591C82.9973 20.1952 81.1282 19.5184 79.9827 18.7114C78.8373 17.9044 78.4208 16.962 77.6502 16.9724" fill="#333333"/>
<path fill-rule="evenodd" clip-rule="evenodd" d="M55.3405 3.73758C55.5355 3.66564 55.7222 3.57314 55.8976 3.46163C56.3743 3.06052 56.7686 2.57074 57.0587 2.01944C58.601 2.41726 60.0813 3.02517 61.4581 3.82609C59.4273 3.58734 57.3774 3.55768 55.3405 3.73758Z" fill="#1C1C1C"/>
<path fill-rule="evenodd" clip-rule="evenodd" d="M77.6502 16.962C77.2296 17.0188 76.8253 17.1624 76.4632 17.3837C76.2627 15.9694 75.7272 14.6235 74.9012 13.4581C76.4442 14.6634 77.7898 16.1021 78.8894 17.7222C78.4573 17.2848 78.124 16.9568 77.6711 16.962" fill="#1C1C1C"/>
<path fill-rule="evenodd" clip-rule="evenodd" d="M33.9732 262.999C37.196 262.572 41.1685 263.415 43.4333 265.748C44.5486 266.9 45.3786 268.298 45.8568 269.828C46.3351 271.359 46.4483 272.98 46.1876 274.563H23.3936L0.766315 263.775L9.61731 247.478C9.96601 247.203 10.3795 247.021 10.8184 246.95C11.2573 246.88 11.707 246.923 12.1246 247.075C12.5423 247.227 12.9139 247.484 13.2041 247.821C13.4943 248.158 13.6934 248.563 13.7825 248.999C14.6761 249.967 15.7573 250.743 16.9602 251.28C18.1632 251.817 19.4628 252.104 20.78 252.123C22.3107 249.842 24.4245 249.134 27.0278 249.972L33.9732 262.999Z" fill="#1C1C1C"/>
<path fill-rule="evenodd" clip-rule="evenodd" d="M45.6252 269.163C45.923 269.939 46.1291 270.746 46.2396 271.569H24.8931C24.7358 271.572 24.5798 271.541 24.4349 271.48L2.18245 261.125L3.31227 259.042L25.0545 269.169L45.6252 269.163Z" fill="white"/>
<path fill-rule="evenodd" clip-rule="evenodd" d="M82.5912 33.7268C83.0409 36.5014 82.4293 39.3435 80.8783 41.6875C80.1611 41.8217 79.4218 41.7764 78.7264 41.5557C78.0309 41.335 77.4008 40.9458 76.8921 40.4228C76.3834 39.8997 76.012 39.2589 75.8108 38.5576C75.6096 37.8562 75.585 37.116 75.7391 36.4028C75.8932 35.6897 76.2212 35.0256 76.694 34.4699C77.1667 33.9142 77.7696 33.4839 78.4488 33.2175C79.1281 32.9511 79.8627 32.8568 80.5872 32.9429C81.3118 33.029 82.0037 33.293 82.6016 33.7112" fill="#4E6FB5"/>
<path fill-rule="evenodd" clip-rule="evenodd" d="M82.5912 33.7268C81.4492 39.034 80.8783 41.6875 80.8783 41.6875L83.8407 41.9114C83.9374 41.9106 84.032 41.883 84.1138 41.8315C84.1957 41.78 84.2616 41.7067 84.3041 41.6198C84.1965 38.8743 84.1045 36.3266 84.0282 33.9768L82.5912 33.7268Z" fill="#333333"/>
<path fill-rule="evenodd" clip-rule="evenodd" d="M84.9966 134.363L85.0903 135.446C78.7758 137.078 72.3737 138.351 65.9149 139.257C58.8023 140.261 51.6264 140.748 44.4434 140.715C44.2991 140.715 44.1607 140.657 44.0587 140.555C43.9566 140.453 43.8993 140.315 43.8993 140.171C43.8993 140.026 43.9566 139.888 44.0587 139.786C44.1607 139.684 44.2991 139.626 44.4434 139.626C51.5802 139.666 58.7106 139.193 65.7795 138.21C72.2533 137.295 78.6694 136.01 84.9966 134.363Z" fill="#32487A"/>
</svg>
